<svg width="512" height="512" viewBox="0 0 551.13 551.13" xmlns="http://www.w3.org/2000/svg" xmlns:xlink="http://www.w3.org/1999/xlink" overflow="hidden"><path d="M275.531 172.228 275.481 292.721C275.481 297.296 277.297 301.669 280.527 304.898L366.725 391.079 391.079 366.725 309.926 285.589 309.976 172.228Z" fill="#A6A6A6"/><path d="M310.011 34.445C188.781 34.445 88.448 124.478 71.644 241.119L0 241.119 86.114 327.233 172.228 241.119 106.448 241.119C122.925 143.53 207.803 68.891 310.011 68.891 423.977 68.891 516.685 161.598 516.685 275.565 516.685 389.532 423.978 482.239 310.011 482.239 245.947 482.239 186.542 453.243 147.033 402.684L119.887 423.876C165.971 482.844 235.266 516.684 310.011 516.684 442.966 516.684 551.13 408.503 551.13 275.565 551.13 142.627 442.966 34.446 310.011 34.445Z" fill="#A6A6A6"/></svg>