<svg viewBox="0 0 150 150" xmlns="http://www.w3.org/2000/svg" xmlns:xlink="http://www.w3.org/1999/xlink" id="Layer_1" overflow="hidden"><g id="XMLID_240_"><path d="M15 30 135 30C143.284 30 150 23.284 150 15 150 6.716 143.284 0 135 0L15 0C6.716 0 0 6.716 0 15 0 23.284 6.716 30 15 30Z" id="XMLID_241_" fill="#A6A6A6"/><path d="M135 60 15 60C6.716 60 0 66.716 0 75 0 83.284 6.716 90 15 90L135 90C143.284 90 150 83.284 150 75 150 66.716 143.284 60 135 60Z" id="XMLID_242_" fill="#A6A6A6"/><path d="M135 120 15 120C6.716 120 0 126.716 0 135 0 143.284 6.716 150 15 150L135 150C143.284 150 150 143.284 150 135 150 126.716 143.284 120 135 120Z" id="XMLID_243_" fill="#A6A6A6"/></g><g></g><g></g><g></g><g></g><g></g><g></g><g></g><g></g><g></g><g></g><g></g><g></g><g></g><g></g><g></g></svg>