<svg height="512" viewBox="0 0 511.999 511.999" width="512" xmlns="http://www.w3.org/2000/svg"><path d="M172.31 123.77c-.858-1.542-.256-3.449 1.288-4.305l.029-.016c11.444-6.368 15.051-21.365 7.218-32.342-5.84-8.184-16.748-11.408-26.091-7.694-6.778 2.694-11.353 8.16-13.182 14.427a5.296 5.296 0 01-6.522 3.629c-6.29-1.75-13.346-.744-19.208 3.596-8.081 5.982-11.091 16.951-7.216 26.228 5.198 12.443 19.844 17.284 31.288 10.916l.029-.016c1.541-.861 3.479-.367 4.337 1.175l16.697 30.007h2.926l25.105-13.772v-1.825z" fill="#ffdda8"/><path d="M179.262 160.618l-16.697-30.007c-.858-1.542-2.796-2.036-4.337-1.175l-.029.016c-11.444 6.368-26.09 1.527-31.288-10.916-3.064-7.334-1.809-15.716 2.837-21.865-4.765-.143-9.65 1.243-13.907 4.394-8.081 5.982-11.091 16.951-7.216 26.228 5.198 12.443 19.844 17.284 31.288 10.916l.029-.016c1.541-.861 3.479-.367 4.337 1.175l16.697 30.007h2.926l15.962-8.757z" fill="#ffd086"/><path d="M249.797 197.636c-13.442-3.816-25.23-12.001-33.673-23.135l-8.898-11.734c-6.851-9.034-19.304-11.65-29.211-6.138l-8.821 4.908c-9.907 5.513-14.248 17.474-10.183 28.058l5.279 13.742a62.981 62.981 0 013.079 10.894l3.352 5.113 60.491 21.302 42.302-24.907v-5.915a67.764 67.764 0 00-23.717-12.188z" fill="#cb6c35"/><path d="M195.79 228.172l35.424 12.474 42.302-24.907v-5.915a67.77 67.77 0 00-22.364-11.766c-15.602 4.615-29.949 11.858-42.438 21.18a220.372 220.372 0 01-12.924 8.934z" fill="#ae5e2e"/><circle cx="417.77" cy="373.594" fill="#ffa90f" r="50.427"/><path d="M417.77 430.716a7.726 7.726 0 01-7.726-7.726v-98.793a7.726 7.726 0 1115.452 0v98.793a7.726 7.726 0 01-7.726 7.726z" fill="#ffc365"/><path d="M456.685 404.983l-85.557-49.396a7.725 7.725 0 01-2.828-10.554 7.725 7.725 0 0110.554-2.828l85.557 49.396a7.726 7.726 0 11-7.726 13.382z" fill="#ffc365"/><path d="M368.3 402.155a7.725 7.725 0 012.828-10.554l85.557-49.396a7.727 7.727 0 017.726 13.382l-85.557 49.396a7.727 7.727 0 01-10.554-2.828z" fill="#ffc365"/><path d="M343.697 190.957c-31.151 0-59.78 10.074-82.348 26.919a219.25 219.25 0 01-29.003 18.306l-1.868 7.37-74.999 27.878 36.514 77.442s-39.273 42.772 16 76.516c2.99 1.826 5.423 3.601 7.359 5.327h161.926l-1.444-6.696a92.31 92.31 0 0024.193-3.22c-19.093-7.181-32.682-25.603-32.682-47.207 0-27.85 22.577-50.427 50.427-50.427 19.775 0 36.885 11.385 45.147 27.956a40.287 40.287 0 0111.129-16.495 118.799 118.799 0 001.566-18.319c.006-.755.009-1.516.009-2.28-.001-67.969-59.066-123.07-131.926-123.07z" fill="#cb6c35"/><path d="M499.618 344.965c-10.435.736-20.604 5.37-28.131 13.781a41.627 41.627 0 00-4.164 5.536c.553 2.954.856 5.997.868 9.109.066-.003.13.001.195-.004 10.118-.714 19.979-5.207 27.278-13.362a40.255 40.255 0 008.192-14.069c-1.245-.713-2.695-1.1-4.238-.991z" fill="#00e49d"/><path d="M471.88 358.933c7.299-8.155 17.16-12.649 27.278-13.363a7.249 7.249 0 014.442 1.139 40.503 40.503 0 002.333-15.272 7.3 7.3 0 00-7.805-6.986c-10.118.714-19.979 5.207-27.278 13.363a40.267 40.267 0 00-7.934 13.314 50.14 50.14 0 014.525 13.804 40.424 40.424 0 014.439-5.999z" fill="#00d391"/><path d="M312.395 373.634c-9.212 4.322-15.601 13.663-15.601 24.512s6.389 20.19 15.601 24.512c10.226-3.455 17.591-13.12 17.591-24.512s-7.365-21.057-17.591-24.512z" fill="#f27182"/><path d="M297.552 398.146c0-10.875 6.712-20.177 16.217-24.004a25.79 25.79 0 00-9.657-1.87c-8.479 0-16.005 4.079-20.724 10.381l-1.461 1.391v26.141l1.461 3.455c4.719 6.302 12.245 10.381 20.724 10.381a25.79 25.79 0 009.657-1.87c-9.505-3.828-16.217-13.13-16.217-24.005z" fill="#ed5469"/><path d="M417.77 431.746c-32.065 0-58.153-26.087-58.153-58.153s26.087-58.154 58.153-58.154 58.153 26.087 58.153 58.154c0 32.066-26.088 58.153-58.153 58.153zm0-100.853c-23.545 0-42.7 19.156-42.7 42.701s19.155 42.7 42.7 42.7 42.7-19.155 42.7-42.7c0-23.546-19.155-42.701-42.7-42.701z" fill="#ffd086"/><path d="M246.005 139.28a7.726 7.726 0 01-7.726-7.726V80.056a7.726 7.726 0 1115.452 0v51.498a7.726 7.726 0 01-7.726 7.726zM292.707 139.28a7.726 7.726 0 01-7.726-7.726V64.691a7.726 7.726 0 1115.452 0v66.863a7.726 7.726 0 01-7.726 7.726zM339.408 139.28a7.726 7.726 0 01-7.726-7.726V50.17a7.726 7.726 0 1115.452 0v81.384a7.726 7.726 0 01-7.726 7.726zM386.109 139.28a7.726 7.726 0 01-7.726-7.726V64.691a7.726 7.726 0 1115.452 0v66.863a7.726 7.726 0 01-7.726 7.726zM432.81 139.28a7.726 7.726 0 01-7.726-7.726V80.056a7.726 7.726 0 1115.452 0v51.498a7.725 7.725 0 01-7.726 7.726z" fill="#dbedff"/><path d="M314.955 329.228a41.461 41.461 0 0026.158 7.009c-2.594-8.612-8.054-16.418-16.093-21.839-8.059-5.434-17.368-7.566-26.345-6.725a41.453 41.453 0 0016.28 21.555z" fill="#00e49d"/><path d="M340.835 335.363a40.247 40.247 0 01-25.858-6.773 40.242 40.242 0 01-15.817-20.965 40.735 40.735 0 00-3.862.5 7.3 7.3 0 00-5.856 8.685c2.087 9.926 7.884 19.082 16.958 25.201s19.736 8.059 29.72 6.273a7.3 7.3 0 005.856-8.685 40.417 40.417 0 00-1.141-4.236z" fill="#00d391"/><path d="M269.561 373.209c-10.005 3.874-17.111 13.565-17.111 24.937s7.106 21.064 17.111 24.937c10.94-3.019 18.978-13.037 18.978-24.937-.001-11.901-8.038-21.918-18.978-24.937z" fill="#ffc365"/><path d="M253.056 398.146c0-11.448 7.437-21.152 17.741-24.562a25.831 25.831 0 00-8.133-1.312c-14.29 0-25.874 11.584-25.874 25.874s11.584 25.874 25.874 25.874c2.843 0 5.575-.465 8.133-1.312-10.304-3.41-17.741-13.114-17.741-24.562z" fill="#ffa90f"/><path d="M192.451 348.912l-36.599-77.621-31.14 11.575h-3.6c-27.478 19.958-43.723 46.495-41.323 74.167 0 36.996 27.567 66.987 61.574 66.987l7.729 6.696h67.827c-2.088-2.15-4.975-4.383-8.764-6.696-54.254-33.122-15.704-75.108-15.704-75.108z" fill="#ae5e2e"/><path d="M509.473 436.228c4.993-4.106 2.089-12.208-4.375-12.208H6.902c-6.464 0-9.368 8.102-4.375 12.208l12.559 10.329a101.018 101.018 0 0064.168 22.998h353.493c23.408 0 46.089-8.129 64.168-22.998z" fill="#dbedff"/><path d="M113.87 436.228c-4.993-4.106-2.089-12.208 4.375-12.208H6.902c-6.464 0-9.368 8.102-4.375 12.208l12.559 10.329a101.018 101.018 0 0064.168 22.998h111.344a101.018 101.018 0 01-64.168-22.998z" fill="#b5dcff"/><path d="M99.644 161.751l.025-.023c9.674-8.827 9.739-24.252-.408-33.135-7.565-6.622-18.921-7.253-27.161-1.493-5.978 4.18-9.174 10.551-9.514 17.07a5.296 5.296 0 01-5.513 5.031c-6.523-.258-13.16 2.343-17.868 7.914-6.49 7.679-6.899 19.046-.996 27.184 7.918 10.916 23.285 12.261 32.959 3.434a.48.48 0 01.024-.022c1.302-1.192 3.302-1.156 4.491.147l23.146 25.367h3.906l19.791-19.12v-2.501L99.38 166.237c-1.189-1.304-1.041-3.299.264-4.486z" fill="#ffdda8"/><path d="M113.424 202.236l-23.146-25.367c-1.189-1.303-3.189-1.339-4.491-.147l-.024.022c-9.674 8.827-25.041 7.482-32.959-3.434-5.039-6.947-5.463-16.239-1.447-23.588-4.533 1.01-8.824 3.456-12.151 7.393-6.49 7.679-6.899 19.046-.996 27.184 7.918 10.916 23.285 12.261 32.959 3.434a.48.48 0 01.024-.022c1.302-1.192 3.302-1.156 4.491.147l23.146 25.367h3.906l11.374-10.989z" fill="#ffd086"/><path d="M238.736 242.308c-12.615-13.825-29.641-21.212-46.968-21.988-13.959-.625-27.312-5.882-38.088-14.778l-7.346-6.064a22.857 22.857 0 00-2.629 2.041l-7.634 6.965c-8.574 7.823-10.085 20.762-3.545 30.35l8.492 12.45c8.213 12.041 11.991 26.435 11.473 41.001-.66 18.574 6.099 37.423 20.515 51.719a67.651 67.651 0 0010.06 8.211l18.6 2.131c10.848-2.084 21.294-6.818 30.263-14.272 29.917-24.863 32.731-69.355 6.807-97.766z" fill="#dd8858"/><path d="M173.964 342.332c-14.082-13.965-20.684-32.377-20.04-50.52.506-14.228-3.184-28.289-11.207-40.05l-8.295-12.161c-6.389-9.366-4.912-22.005 3.462-29.647l7.457-6.804a22.918 22.918 0 012.814-2.168l-5.831-4.814c-8.743-7.218-21.464-6.903-29.839.739l-7.457 6.804c-8.375 7.642-9.851 20.281-3.463 29.647l8.295 12.161c8.023 11.762 11.713 25.822 11.207 40.05-.645 18.143 5.958 36.555 20.04 50.52a66.802 66.802 0 0019.902 13.601l26.613 3.048a66.574 66.574 0 01-13.658-10.406z" fill="#cb6c35"/><path d="M203.929 348.56a40.831 40.831 0 00-24.7 6.966 40.822 40.822 0 00-15.854 20.693 40.226 40.226 0 0024.94-6.828 40.23 40.23 0 0015.781-20.86z" fill="#00e49d"/><path d="M179.612 355.829a40.232 40.232 0 0124.338-6.865 40.823 40.823 0 001.323-4.774 7.3 7.3 0 00-5.856-8.685c-9.985-1.786-20.646.154-29.72 6.273s-14.871 15.274-16.958 25.201a7.3 7.3 0 005.856 8.685c1.777.318 3.575.512 5.382.591a40.227 40.227 0 0115.635-20.426z" fill="#00d391"/></svg>