<svg viewBox="0 0 512 512" xmlns="http://www.w3.org/2000/svg" xmlns:xlink="http://www.w3.org/1999/xlink" id="Capa_1" overflow="hidden"><g><g><path d="M256 288.389C102.163 288.389 17.44 361.165 17.44 493.314 17.44 503.635 25.805 512 36.126 512L475.873 512C486.194 512 494.559 503.635 494.559 493.314 494.56 361.172 409.837 288.389 256 288.389ZM55.492 474.628C62.842 375.822 130.205 325.762 256 325.762 381.795 325.762 449.159 375.822 456.515 474.628L55.492 474.628Z" fill="#A6A6A6"/></g></g><g><g><path d="M256 0C185.335 0 132.049 54.358 132.049 126.437 132.049 200.627 187.653 260.977 256 260.977 324.347 260.977 379.951 200.627 379.951 126.443 379.951 54.358 326.665 0 256 0ZM256 223.611C208.257 223.611 169.421 180.022 169.421 126.443 169.421 74.832 205.834 37.372 256 37.372 305.363 37.372 342.579 75.66 342.579 126.443 342.579 180.022 303.743 223.611 256 223.611Z" fill="#A6A6A6"/></g></g><g></g><g></g><g></g><g></g><g></g><g></g><g></g><g></g><g></g><g></g><g></g><g></g><g></g><g></g><g></g></svg>